<svg xmlns="http://www.w3.org/2000/svg" xmlns:xlink="http://www.w3.org/1999/xlink" width="64" height="72.6693115234375" viewBox="0 0 64 72.6693115234375" fill="none"><g filter="url(#filter_v1_vPpY7EX)"><path     fill="#FFFFFF"  d="M60 28C60 12.5362 47.465 0 32 0C16.535 0 4 12.5362 4 28C4 35.9301 7.29244 43.0855 12.59 48.18C17.9748 53.3584 24.7075 57.2507 29.49 62.99L29.7 63.23C30.8994 64.6693 33.1006 64.6693 34.3 63.23L34.51 62.99C39.2925 57.2507 45.9891 53.382 51.38 48.21C56.6917 43.1141 60 35.9421 60 28"></path></g><g  clip-path="url(#clip-path-ZOZwMO6lx8)"><path  transform="translate(8, 4)"   fill="url(#linear_fill_ZOZwMO6lx8_0)"  d="M0 24Q0 23.4108 0.028909 22.8224Q0.0578181 22.2339 0.115567 21.6476Q0.173315 21.0613 0.259764 20.4785Q0.346212 19.8957 0.461153 19.3178Q0.576094 18.74 0.71925 18.1685Q0.862406 17.597 1.03343 17.0332Q1.20446 16.4694 1.40294 15.9146Q1.60143 15.3599 1.82689 14.8156Q2.05236 14.2713 2.30426 13.7387Q2.55616 13.2061 2.83389 12.6865Q3.11162 12.1669 3.41451 11.6615Q3.71741 11.1562 4.04473 10.6663Q4.37205 10.1764 4.72302 9.70322Q5.07399 9.22999 5.44775 8.77456Q5.82151 8.31913 6.21717 7.88258Q6.61283 7.44604 7.02944 7.02944Q7.44604 6.61283 7.88258 6.21717Q8.31913 5.82151 8.77456 5.44775Q9.22999 5.07399 9.70322 4.72302Q10.1764 4.37205 10.6663 4.04473Q11.1562 3.71741 11.6615 3.41451Q12.1669 3.11162 12.6865 2.83389Q13.2061 2.55616 13.7387 2.30426Q14.2713 2.05236 14.8156 1.82689Q15.3599 1.60143 15.9146 1.40294Q16.4694 1.20446 17.0332 1.03343Q17.597 0.862406 18.1685 0.71925Q18.74 0.576094 19.3178 0.461153Q19.8957 0.346212 20.4785 0.259764Q21.0613 0.173315 21.6476 0.115567Q22.2339 0.0578181 22.8224 0.028909Q23.4108 0 24 0Q24.5892 0 25.1776 0.028909Q25.7661 0.0578181 26.3524 0.115567Q26.9387 0.173315 27.5215 0.259764Q28.1043 0.346212 28.6822 0.461153Q29.26 0.576094 29.8315 0.71925Q30.403 0.862406 30.9668 1.03343Q31.5306 1.20446 32.0854 1.40294Q32.6401 1.60143 33.1844 1.82689Q33.7287 2.05236 34.2613 2.30426Q34.7939 2.55616 35.3135 2.83389Q35.8331 3.11162 36.3385 3.41451Q36.8438 3.71741 37.3337 4.04473Q37.8236 4.37205 38.2968 4.72302Q38.77 5.07399 39.2254 5.44775Q39.6809 5.82151 40.1174 6.21717Q40.554 6.61283 40.9706 7.02944Q41.3872 7.44604 41.7828 7.88258Q42.1785 8.31913 42.5522 8.77456Q42.926 9.22999 43.277 9.70322Q43.6279 10.1764 43.9553 10.6663Q44.2826 11.1562 44.5855 11.6615Q44.8884 12.1669 45.1661 12.6865Q45.4438 13.2061 45.6957 13.7387Q45.9476 14.2713 46.1731 14.8156Q46.3986 15.3599 46.5971 15.9146Q46.7955 16.4694 46.9666 17.0332Q47.1376 17.597 47.2807 18.1685Q47.4239 18.74 47.5388 19.3178Q47.6538 19.8957 47.7402 20.4785Q47.8267 21.0613 47.8844 21.6476Q47.9422 22.2339 47.9711 22.8224Q48 23.4108 48 24Q48 24.5892 47.9711 25.1776Q47.9422 25.7661 47.8844 26.3524Q47.8267 26.9387 47.7402 27.5215Q47.6538 28.1043 47.5388 28.6822Q47.4239 29.26 47.2807 29.8315Q47.1376 30.403 46.9666 30.9668Q46.7955 31.5306 46.5971 32.0854Q46.3986 32.6401 46.1731 33.1844Q45.9476 33.7287 45.6957 34.2613Q45.4438 34.7939 45.1661 35.3135Q44.8884 35.8331 44.5855 36.3385Q44.2826 36.8438 43.9553 37.3337Q43.6279 37.8236 43.277 38.2968Q42.926 38.77 42.5522 39.2254Q42.1785 39.6809 41.7828 40.1174Q41.3872 40.554 40.9706 40.9706Q40.554 41.3872 40.1174 41.7828Q39.6809 42.1785 39.2254 42.5522Q38.77 42.926 38.2968 43.277Q37.8236 43.6279 37.3337 43.9553Q36.8438 44.2826 36.3385 44.5855Q35.8331 44.8884 35.3135 45.1661Q34.7939 45.4438 34.2613 45.6957Q33.7287 45.9476 33.1844 46.1731Q32.6401 46.3986 32.0854 46.5971Q31.5306 46.7955 30.9668 46.9666Q30.403 47.1376 29.8315 47.2807Q29.26 47.4239 28.6822 47.5388Q28.1043 47.6538 27.5215 47.7402Q26.9387 47.8267 26.3524 47.8844Q25.7661 47.9422 25.1776 47.9711Q24.5892 48 24 48Q23.4108 48 22.8224 47.9711Q22.2339 47.9422 21.6476 47.8844Q21.0613 47.8267 20.4785 47.7402Q19.8957 47.6538 19.3178 47.5388Q18.74 47.4239 18.1685 47.2807Q17.597 47.1376 17.0332 46.9666Q16.4694 46.7955 15.9146 46.5971Q15.3599 46.3986 14.8156 46.1731Q14.2713 45.9476 13.7387 45.6957Q13.2061 45.4438 12.6865 45.1661Q12.1669 44.8884 11.6615 44.5855Q11.1562 44.2826 10.6663 43.9553Q10.1764 43.6279 9.70322 43.277Q9.22999 42.926 8.77456 42.5522Q8.31913 42.1785 7.88258 41.7828Q7.44604 41.3872 7.02944 40.9706Q6.61283 40.554 6.21717 40.1174Q5.82151 39.6809 5.44775 39.2254Q5.07399 38.77 4.72302 38.2968Q4.37205 37.8236 4.04473 37.3337Q3.71741 36.8438 3.41451 36.3385Q3.11162 35.8331 2.83389 35.3135Q2.55616 34.7939 2.30426 34.2613Q2.05236 33.7287 1.82689 33.1844Q1.60143 32.6401 1.40294 32.0854Q1.20446 31.5306 1.03343 30.9668Q0.862406 30.403 0.71925 29.8315Q0.576094 29.26 0.461153 28.6822Q0.346212 28.1043 0.259764 27.5215Q0.173315 26.9387 0.115567 26.3524Q0.0578181 25.7661 0.028909 25.1776Q0 24.5892 0 24Z"></path><g opacity="0.8"><path fill-rule="evenodd"  fill="rgba(82, 247, 229, 1)"  d="M28.7216 39.5467C23.6878 38.1202 20 33.4908 20 28C20 27.8129 20.0043 27.6269 20.0127 27.4419L22.0107 27.5333Q22 27.7661 22 28Q22 29.6887 22.5452 31.2669Q23.0723 32.7927 24.06 34.0801Q25.0383 35.3554 26.364 36.2619Q27.7077 37.1806 29.2669 37.6225L28.7216 39.5467ZM40.7922 19.833C42.7827 21.975 44 24.8453 44 28C44 33.6779 40.0567 38.4347 34.7593 39.6812L34.3012 37.7344Q35.9392 37.349 37.3635 36.4417Q38.7648 35.5492 39.806 34.251Q40.8557 32.9423 41.4181 31.3712Q42 29.7457 42 28Q42 26.0615 41.2862 24.281Q40.5962 22.5602 39.3271 21.1945L40.7922 19.833ZM35.7881 16.6102L35.1572 18.5081Q33.6289 18 32 18Q29.3365 18 27.0413 19.3137Q25.945 19.9411 25.0358 20.8236Q24.1274 21.7054 23.4674 22.7819L21.7623 21.7365C23.872 18.2955 27.6679 16 32 16C33.3237 16 34.5974 16.2143 35.7881 16.6102Z"></path></g><g opacity="0.2"><path   fill="rgba(82, 247, 229, 1)"  d="M53.019 33.4913M53.019 33.4913Q52.3019 36.2484 50.8987 38.7196Q49.4515 41.2681 47.3598 43.3598Q45.6026 45.117 43.5153 46.424Q43.4735 46.4501 43.4275 46.4676Q43.3815 46.4851 43.3329 46.4932Q43.2843 46.5014 43.2351 46.5Q43.1859 46.4985 43.1379 46.4875Q43.0899 46.4764 43.045 46.4562Q43.0001 46.4361 42.9599 46.4075Q42.9198 46.3789 42.8861 46.3431Q42.8523 46.3073 42.8261 46.2655Q42.8 46.2238 42.7825 46.1777Q42.765 46.1317 42.7569 46.0832Q42.7487 46.0346 42.7501 45.9854Q42.7516 45.9361 42.7626 45.8881Q42.7737 45.8402 42.7939 45.7952Q42.814 45.7503 42.8426 45.7102Q42.8712 45.6701 42.907 45.6363Q42.9428 45.6025 42.9846 45.5764Q44.9757 44.3297 46.6527 42.6527Q48.6488 40.6566 50.0291 38.2258Q51.3673 35.8692 52.0512 33.2395Q52.0636 33.1919 52.0851 33.1475Q52.1065 33.1032 52.1362 33.0639Q52.1659 33.0246 52.2027 32.9919Q52.2395 32.9592 52.282 32.9342Q52.3244 32.9093 52.3709 32.8931Q52.4174 32.8769 52.4662 32.8702Q52.515 32.8634 52.5642 32.8662Q52.6133 32.8691 52.661 32.8815Q52.7086 32.8939 52.753 32.9153Q52.7973 32.9368 52.8366 32.9665Q52.8759 32.9962 52.9086 33.033Q52.9414 33.0697 52.9663 33.1122Q52.9912 33.1547 53.0074 33.2012Q53.0236 33.2477 53.0303 33.2965Q53.0371 33.3453 53.0343 33.3944Q53.0314 33.4436 53.019 33.4913ZM37.8894 48.9115M37.8894 48.9115Q33.9053 50.029 29.7795 49.6063Q25.6136 49.1796 21.9224 47.2437Q21.8788 47.2209 21.8405 47.1899Q21.8022 47.159 21.7706 47.1212Q21.7391 47.0833 21.7155 47.0401Q21.692 46.9968 21.6773 46.9498Q21.6626 46.9028 21.6574 46.8539Q21.6522 46.8049 21.6567 46.7558Q21.6611 46.7068 21.675 46.6596Q21.689 46.6123 21.7118 46.5687Q21.7347 46.5251 21.7656 46.4868Q21.7966 46.4485 21.8344 46.4169Q21.8722 46.3854 21.9155 46.3618Q21.9587 46.3383 22.0057 46.3236Q22.0527 46.309 22.1017 46.3037Q22.1507 46.2985 22.1997 46.303Q22.2488 46.3074 22.296 46.3213Q22.3432 46.3353 22.3869 46.3581Q25.9073 48.2044 29.8814 48.6115Q33.8181 49.0148 37.6193 47.9486Q37.6667 47.9353 37.7158 47.9315Q37.7649 47.9277 37.8138 47.9336Q37.8627 47.9394 37.9095 47.9547Q37.9563 47.97 37.9993 47.9941Q38.0422 48.0183 38.0796 48.0503Q38.117 48.0823 38.1474 48.121Q38.1779 48.1598 38.2001 48.2037Q38.2224 48.2476 38.2357 48.295Q38.249 48.3424 38.2528 48.3915Q38.2566 48.4406 38.2508 48.4895Q38.2449 48.5384 38.2296 48.5852Q38.2143 48.632 38.1902 48.675Q38.1661 48.7179 38.1341 48.7553Q38.102 48.7927 38.0633 48.8231Q38.0246 48.8536 37.9807 48.8759Q37.9368 48.8982 37.8894 48.9115ZM16.9479 43.652M16.9445 43.6487L16.6535 43.3631Q13.7179 40.4276 12.0815 36.6562Q10.501 33.0136 10.314 29.0291Q10.3117 28.9799 10.319 28.9312Q10.3264 28.8825 10.343 28.8362Q10.3597 28.7898 10.3851 28.7477Q10.4106 28.7055 10.4437 28.6691Q10.4769 28.6326 10.5165 28.6034Q10.5561 28.5741 10.6007 28.5532Q10.6452 28.5322 10.693 28.5204Q10.7408 28.5085 10.79 28.5062Q10.8392 28.5039 10.8879 28.5112Q10.9366 28.5186 10.9829 28.5352Q11.0293 28.5519 11.0714 28.5773Q11.1136 28.6028 11.15 28.6359Q11.1865 28.6691 11.2157 28.7087Q11.245 28.7483 11.2659 28.7929Q11.2869 28.8374 11.2987 28.8852Q11.3106 28.933 11.3129 28.9822Q11.4913 32.7836 12.9989 36.2582Q14.5596 39.855 17.3539 42.6494L17.6449 42.935Q17.6801 42.9695 17.7078 43.0102Q17.7356 43.0509 17.7548 43.0962Q17.7741 43.1415 17.7842 43.1897Q17.7942 43.2379 17.7947 43.2872Q17.7952 43.3364 17.786 43.3848Q17.7769 43.4332 17.7585 43.4788Q17.74 43.5245 17.7131 43.5657Q17.6861 43.6069 17.6516 43.6421Q17.6171 43.6772 17.5764 43.705Q17.5357 43.7327 17.4904 43.752Q17.4451 43.7712 17.3969 43.7813Q17.3487 43.7914 17.2994 43.7918Q17.2502 43.7923 17.2018 43.7831Q17.1534 43.774 17.1077 43.7556Q17.0621 43.7372 17.0209 43.7102Q16.9797 43.6832 16.9445 43.6487ZM10.891 22.9185M10.891 22.9185Q11.5797 20.048 13.0081 17.4742Q14.4821 14.8182 16.6502 12.6502Q18.2584 11.042 20.1459 9.80914Q20.1871 9.78221 20.2328 9.76384Q20.2785 9.74547 20.3269 9.73636Q20.3753 9.72726 20.4245 9.72778Q20.4738 9.72829 20.522 9.73841Q20.5701 9.74852 20.6154 9.76784Q20.6607 9.78716 20.7014 9.81494Q20.7421 9.84273 20.7765 9.87792Q20.811 9.9131 20.8379 9.95433Q20.8648 9.99556 20.8832 10.0413Q20.9016 10.0869 20.9107 10.1353Q20.9198 10.1837 20.9193 10.233Q20.9187 10.2822 20.9086 10.3304Q20.8985 10.3786 20.8792 10.4239Q20.8599 10.4692 20.8321 10.5099Q20.8043 10.5505 20.7691 10.585Q20.7339 10.6194 20.6927 10.6464Q18.8921 11.8224 17.3573 13.3573Q15.2884 15.4261 13.8825 17.9594Q12.5203 20.414 11.8634 23.1518Q11.8519 23.1997 11.8313 23.2444Q11.8107 23.2891 11.7818 23.329Q11.7528 23.3688 11.7167 23.4022Q11.6805 23.4357 11.6385 23.4614Q11.5965 23.4871 11.5503 23.5042Q11.5041 23.5212 11.4555 23.529Q11.4069 23.5367 11.3577 23.5347Q11.3084 23.5328 11.2606 23.5213Q11.2127 23.5098 11.1679 23.4892Q11.1232 23.4686 11.0834 23.4397Q11.0435 23.4107 11.0101 23.3746Q10.9767 23.3384 10.9509 23.2964Q10.9252 23.2544 10.9081 23.2082Q10.8911 23.162 10.8834 23.1134Q10.8757 23.0648 10.8776 23.0156Q10.8795 22.9664 10.891 22.9185ZM25.7242 7.21384M25.7242 7.21384Q29.6893 6.0197 33.8274 6.36615Q37.9984 6.71537 41.7235 8.5797Q41.7675 8.60174 41.8064 8.63195Q41.8453 8.66216 41.8775 8.69938Q41.9098 8.73659 41.9342 8.77938Q41.9585 8.82218 41.9741 8.8689Q41.9896 8.91562 41.9958 8.96449Q42.0019 9.01335 41.9984 9.06247Q41.9949 9.11159 41.9819 9.15908Q41.9689 9.20657 41.9468 9.25061Q41.9248 9.29465 41.8946 9.33354Q41.8644 9.37243 41.8271 9.40469Q41.7899 9.43694 41.7471 9.46131Q41.7043 9.48568 41.6576 9.50124Q41.6109 9.51679 41.562 9.52293Q41.5132 9.52907 41.4641 9.52556Q41.4149 9.52205 41.3674 9.50903Q41.32 9.496 41.2759 9.47396Q37.723 7.69583 33.744 7.36267Q29.7955 7.03208 26.0125 8.17136Q25.9654 8.18556 25.9164 8.19029Q25.8673 8.19502 25.8183 8.1901Q25.7693 8.18517 25.7222 8.17078Q25.6751 8.15639 25.6318 8.13309Q25.5884 8.10979 25.5504 8.07847Q25.5124 8.04715 25.4812 8.00902Q25.45 7.97089 25.4269 7.92742Q25.4038 7.88394 25.3896 7.83679Q25.3754 7.78963 25.3707 7.74061Q25.3659 7.6916 25.3708 7.6426Q25.3758 7.5936 25.3902 7.5465Q25.4045 7.49941 25.4279 7.45602Q25.4512 7.41264 25.4825 7.37463Q25.5138 7.33663 25.5519 7.30546Q25.59 7.2743 25.6335 7.25117Q25.677 7.22805 25.7242 7.21384ZM46.7601 12.0726M46.7601 12.0726Q47.065 12.3554 47.3598 12.6502Q50.3686 15.6589 52.0104 19.5453Q53.5962 23.2987 53.7113 27.3903Q53.7127 27.4395 53.7045 27.488Q53.6962 27.5366 53.6787 27.5826Q53.6611 27.6286 53.6349 27.6703Q53.6087 27.712 53.5749 27.7478Q53.5411 27.7836 53.5009 27.8121Q53.4607 27.8406 53.4158 27.8607Q53.3708 27.8808 53.3228 27.8918Q53.2748 27.9027 53.2256 27.9041Q53.1764 27.9055 53.1278 27.8973Q53.0793 27.889 53.0333 27.8715Q52.9872 27.8539 52.9455 27.8277Q52.9038 27.8015 52.8681 27.7677Q52.8323 27.7339 52.8038 27.6937Q52.7753 27.6535 52.7551 27.6086Q52.735 27.5636 52.7241 27.5156Q52.7131 27.4676 52.7117 27.4184Q52.6018 23.5148 51.0893 19.9345Q49.5234 16.228 46.6527 13.3573Q46.3713 13.0759 46.0802 12.8059Q46.044 12.7724 46.0152 12.7325Q45.9863 12.6926 45.9657 12.6479Q45.9452 12.6031 45.9338 12.5552Q45.9223 12.5073 45.9205 12.4581Q45.9186 12.4089 45.9264 12.3603Q45.9342 12.3116 45.9513 12.2655Q45.9684 12.2193 45.9942 12.1773Q46.02 12.1354 46.0535 12.0993Q46.087 12.0632 46.1269 12.0343Q46.1668 12.0054 46.2115 11.9849Q46.2563 11.9643 46.3042 11.9529Q46.3521 11.9415 46.4013 11.9396Q46.4505 11.9378 46.4991 11.9455Q46.5478 11.9533 46.5939 11.9704Q46.6401 11.9876 46.6821 12.0134Q46.724 12.0392 46.7601 12.0726Z"></path></g><g opacity="0.4"><path   fill="rgba(82, 247, 229, 1)"  d="M39.6656 42.9212M39.6656 42.9212Q38.0801 43.7336 36.344 44.1987Q33.0715 45.0756 29.7423 44.6209Q26.5271 44.1817 23.6962 42.5663Q23.6534 42.5418 23.6163 42.5096Q23.5791 42.4773 23.5489 42.4384Q23.5187 42.3994 23.4967 42.3554Q23.4747 42.3113 23.4617 42.2638Q23.4487 42.2163 23.4453 42.1672Q23.4418 42.1181 23.448 42.0692Q23.4542 42.0204 23.4698 41.9737Q23.4854 41.9269 23.5098 41.8842Q23.5342 41.8414 23.5665 41.8042Q23.5987 41.767 23.6377 41.7369Q23.6766 41.7067 23.7206 41.6847Q23.7647 41.6627 23.8122 41.6497Q23.8597 41.6367 23.9088 41.6332Q23.9579 41.6298 24.0068 41.6359Q24.0556 41.6421 24.1024 41.6577Q24.1491 41.6733 24.1918 41.6977Q26.8544 43.2171 29.8776 43.6301Q33.0072 44.0576 36.0852 43.2328Q37.7187 42.7951 39.2096 42.0312Q39.2534 42.0088 39.3008 41.9953Q39.3481 41.9818 39.3972 41.9778Q39.4463 41.9739 39.4952 41.9795Q39.5442 41.9852 39.591 42.0003Q39.6379 42.0154 39.6809 42.0394Q39.7239 42.0634 39.7615 42.0953Q39.799 42.1272 39.8295 42.1658Q39.8601 42.2044 39.8826 42.2482Q39.905 42.292 39.9185 42.3394Q39.932 42.3868 39.936 42.4358Q39.9399 42.4849 39.9343 42.5339Q39.9286 42.5828 39.9135 42.6296Q39.8984 42.6765 39.8744 42.7195Q39.8504 42.7626 39.8185 42.8001Q39.7866 42.8376 39.748 42.8682Q39.7094 42.8987 39.6656 42.9212ZM18.9801 38.5669M18.9801 38.5669Q16.7389 35.8062 15.8112 32.3441Q15.173 29.9624 15.2427 27.5205Q15.3101 25.1555 16.0354 22.8956Q16.0505 22.8487 16.0744 22.8057Q16.0983 22.7626 16.1301 22.7251Q16.162 22.6875 16.2006 22.6569Q16.2391 22.6262 16.2829 22.6037Q16.3267 22.5812 16.3741 22.5677Q16.4214 22.5541 16.4705 22.5501Q16.5196 22.5461 16.5685 22.5517Q16.6174 22.5573 16.6643 22.5723Q16.7112 22.5874 16.7543 22.6113Q16.7973 22.6352 16.8349 22.667Q16.8724 22.6989 16.9031 22.7374Q16.9337 22.776 16.9562 22.8198Q16.9787 22.8636 16.9922 22.911Q17.0058 22.9583 17.0098 23.0074Q17.0139 23.0565 17.0083 23.1054Q17.0026 23.1543 16.9876 23.2012Q16.3057 25.3259 16.2423 27.549Q16.1768 29.8448 16.7771 32.0853Q17.6496 35.3414 19.7565 37.9367Q19.7875 37.9749 19.8105 38.0184Q19.8335 38.062 19.8475 38.1092Q19.8616 38.1564 19.8661 38.2054Q19.8707 38.2545 19.8656 38.3034Q19.8605 38.3524 19.846 38.3995Q19.8314 38.4465 19.808 38.4898Q19.7846 38.5331 19.7531 38.571Q19.7217 38.6089 19.6834 38.64Q19.6452 38.671 19.6017 38.694Q19.5581 38.717 19.5109 38.731Q19.4637 38.7451 19.4147 38.7496Q19.3656 38.7542 19.3166 38.7491Q19.2677 38.744 19.2206 38.7295Q19.1736 38.7149 19.1303 38.6915Q19.087 38.668 19.0491 38.6366Q19.0112 38.6052 18.9801 38.5669ZM18.9618 17.4703M18.9618 17.4703Q20.6054 15.432 22.7842 13.9982Q25.037 12.5157 27.6658 11.8113Q30.643 11.0135 33.6829 11.3198Q33.7319 11.3247 33.779 11.3391Q33.8261 11.3535 33.8694 11.3768Q33.9128 11.4001 33.9508 11.4314Q33.9888 11.4628 34.02 11.5009Q34.0511 11.539 34.0742 11.5825Q34.0974 11.626 34.1115 11.6732Q34.1257 11.7203 34.1305 11.7693Q34.1352 11.8184 34.1302 11.8674Q34.1253 11.9164 34.1109 11.9634Q34.0965 12.0105 34.0732 12.0539Q34.0499 12.0973 34.0186 12.1353Q33.9872 12.1733 33.9491 12.2044Q33.911 12.2356 33.8675 12.2587Q33.824 12.2818 33.7768 12.296Q33.7297 12.3102 33.6807 12.3149Q33.6316 12.3197 33.5826 12.3147Q30.7249 12.0268 27.9247 12.7772Q25.4518 13.4398 23.3339 14.8335Q21.2858 16.1814 19.7402 18.098Q19.7093 18.1364 19.6715 18.1679Q19.6337 18.1995 19.5905 18.2231Q19.5473 18.2467 19.5003 18.2614Q19.4533 18.2761 19.4043 18.2813Q19.3553 18.2866 19.3063 18.2822Q19.2572 18.2778 19.21 18.2639Q19.1628 18.25 19.1191 18.2272Q19.0755 18.2043 19.0372 18.1734Q18.9988 18.1425 18.9673 18.1047Q18.9357 18.0669 18.9121 18.0237Q18.8885 17.9804 18.8738 17.9334Q18.8591 17.8864 18.8539 17.8375Q18.8486 17.7885 18.853 17.7395Q18.8574 17.6904 18.8713 17.6432Q18.8852 17.5959 18.908 17.5523Q18.9309 17.5087 18.9618 17.4703ZM39.6084 13.0632M39.6084 13.0632Q42.7345 14.6552 44.9558 17.3526Q47.2552 20.1448 48.1987 23.6659Q48.7586 25.7557 48.7736 27.8993Q48.7881 29.9799 48.2891 32.004Q47.7988 33.9931 46.842 35.8108Q45.8876 37.6239 44.5287 39.1532Q44.496 39.19 44.4567 39.2197Q44.4174 39.2494 44.3731 39.2709Q44.3288 39.2924 44.2812 39.3049Q44.2335 39.3173 44.1844 39.3202Q44.1352 39.3231 44.0864 39.3163Q44.0377 39.3096 43.9911 39.2935Q43.9446 39.2773 43.9021 39.2524Q43.8596 39.2275 43.8228 39.1948Q43.786 39.1621 43.7563 39.1229Q43.7265 39.0836 43.7051 39.0393Q43.6836 38.995 43.6711 38.9473Q43.6587 38.8997 43.6558 38.8505Q43.6529 38.8014 43.6596 38.7526Q43.6664 38.7038 43.6825 38.6573Q43.6986 38.6107 43.7235 38.5682Q43.7484 38.5258 43.7812 38.489Q45.0593 37.0505 45.9571 35.345Q46.8571 33.6353 47.3182 31.7647Q47.7872 29.8619 47.7736 27.9063Q47.7596 25.8908 47.2328 23.9247Q46.3454 20.6131 44.1839 17.9883Q42.095 15.4518 39.1546 13.9543Q39.1107 13.932 39.072 13.9015Q39.0333 13.871 39.0014 13.8336Q38.9694 13.7961 38.9453 13.7531Q38.9212 13.7102 38.906 13.6634Q38.8908 13.6165 38.885 13.5676Q38.8792 13.5187 38.883 13.4696Q38.8869 13.4205 38.9002 13.3731Q38.9136 13.3257 38.936 13.2818Q38.9583 13.238 38.9888 13.1993Q39.0193 13.1606 39.0567 13.1286Q39.0941 13.0966 39.1371 13.0726Q39.1801 13.0485 39.2269 13.0333Q39.2737 13.018 39.3226 13.0122Q39.3715 13.0064 39.4206 13.0103Q39.4697 13.0141 39.5171 13.0275Q39.5645 13.0409 39.6084 13.0632Z"></path></g><circle cx="32" cy="28" r="6"   fill="#52F7E5" ></circle></g><defs><filter id="filter_v1_vPpY7EX" x="0" y="0" width="64" height="72.6693115234375" filterUnits="userSpaceOnUse" color-interpolation-filters="sRGB"><feFlood flood-opacity="0" result="feFloodId_v1_vPpY7EX"/><feColorMatrix in="SourceAlpha" type="matrix" values="0 0 0 0 0 0 0 0 0 0 0 0 0 0 0 0 0 0 127 0" result="hardAlpha_v1_vPpY7EX"/><feOffset dx="0" dy="4"/><feGaussianBlur stdDeviation="2"/><feComposite in2="hardAlpha_v1_vPpY7EX" operator="out"/><feColorMatrix type="matrix" values="0 0 0 0 0 0 0 0 0 0 0 0 0 0 0 0 0 0 0.25 0"/><feBlend mode="normal" in2="feFloodId_v1_vPpY7EX" result="dropShadow_1_v1_vPpY7EX"/><feBlend mode="normal" in="SourceGraphic" in2="dropShadow_1_v1_vPpY7EX" result="shape_v1_vPpY7EX"/></filter><clipPath id="clip-path-ZOZwMO6lx8"><path d="M8.02891 26.8224Q8 27.4108 8 28Q8 28.5892 8.02891 29.1776Q8.05782 29.7661 8.11557 30.3524Q8.17332 30.9387 8.25976 31.5215Q8.34621 32.1043 8.46115 32.6822Q8.57609 33.26 8.71925 33.8315Q8.86241 34.403 9.03343 34.9668Q9.20446 35.5306 9.40294 36.0854Q9.60143 36.6401 9.82689 37.1844Q10.0524 37.7287 10.3043 38.2613Q10.5562 38.7939 10.8339 39.3135Q11.1116 39.8331 11.4145 40.3385Q11.7174 40.8438 12.0447 41.3337Q12.372 41.8236 12.723 42.2968Q13.074 42.77 13.4478 43.2254Q13.8215 43.6809 14.2172 44.1174Q14.6128 44.554 15.0294 44.9706Q15.446 45.3872 15.8826 45.7828Q16.3191 46.1785 16.7746 46.5522Q17.23 46.926 17.7032 47.277Q18.1764 47.6279 18.6663 47.9553Q19.1562 48.2826 19.6615 48.5855Q20.1669 48.8884 20.6865 49.1661Q21.2061 49.4438 21.7387 49.6957Q22.2713 49.9476 22.8156 50.1731Q23.3599 50.3986 23.9146 50.5971Q24.4694 50.7955 25.0332 50.9666Q25.597 51.1376 26.1685 51.2807Q26.74 51.4239 27.3178 51.5388Q27.8957 51.6538 28.4785 51.7402Q29.0613 51.8267 29.6476 51.8844Q30.2339 51.9422 30.8224 51.9711Q31.4108 52 32 52Q32.5892 52 33.1776 51.9711Q33.7661 51.9422 34.3524 51.8844Q34.9387 51.8267 35.5215 51.7402Q36.1043 51.6538 36.6822 51.5388Q37.26 51.4239 37.8315 51.2807Q38.403 51.1376 38.9668 50.9666Q39.5306 50.7955 40.0854 50.5971Q40.6401 50.3986 41.1844 50.1731Q41.7287 49.9476 42.2613 49.6957Q42.7939 49.4438 43.3135 49.1661Q43.8331 48.8884 44.3385 48.5855Q44.8438 48.2826 45.3337 47.9553Q45.8236 47.6279 46.2968 47.277Q46.77 46.926 47.2254 46.5522Q47.6809 46.1785 48.1174 45.7828Q48.554 45.3872 48.9706 44.9706Q49.3872 44.554 49.7828 44.1174Q50.1785 43.6809 50.5522 43.2254Q50.926 42.77 51.277 42.2968Q51.6279 41.8236 51.9553 41.3337Q52.2826 40.8438 52.5855 40.3385Q52.8884 39.8331 53.1661 39.3135Q53.4438 38.7939 53.6957 38.2613Q53.9476 37.7287 54.1731 37.1844Q54.3986 36.6401 54.5971 36.0854Q54.7955 35.5306 54.9666 34.9668Q55.1376 34.403 55.2807 33.8315Q55.4239 33.26 55.5388 32.6822Q55.6538 32.1043 55.7402 31.5215Q55.8267 30.9387 55.8844 30.3524Q55.9422 29.7661 55.9711 29.1776Q56 28.5892 56 28Q56 27.4108 55.9711 26.8224Q55.9422 26.2339 55.8844 25.6476Q55.8267 25.0613 55.7402 24.4785Q55.6538 23.8957 55.5388 23.3178Q55.4239 22.74 55.2807 22.1685Q55.1376 21.597 54.9666 21.0332Q54.7955 20.4694 54.5971 19.9146Q54.3986 19.3599 54.1731 18.8156Q53.9476 18.2713 53.6957 17.7387Q53.4438 17.2061 53.1661 16.6865Q52.8884 16.1669 52.5855 15.6615Q52.2826 15.1562 51.9553 14.6663Q51.6279 14.1764 51.277 13.7032Q50.926 13.23 50.5522 12.7746Q50.1785 12.3191 49.7828 11.8826Q49.3872 11.446 48.9706 11.0294Q48.554 10.6128 48.1174 10.2172Q47.6809 9.82151 47.2254 9.44775Q46.77 9.07399 46.2968 8.72302Q45.8236 8.37205 45.3337 8.04473Q44.8438 7.71741 44.3385 7.41451Q43.8331 7.11162 43.3135 6.83389Q42.7939 6.55616 42.2613 6.30426Q41.7287 6.05236 41.1844 5.82689Q40.6401 5.60143 40.0854 5.40294Q39.5306 5.20446 38.9668 5.03343Q38.403 4.86241 37.8315 4.71925Q37.26 4.57609 36.6822 4.46115Q36.1043 4.34621 35.5215 4.25976Q34.9387 4.17332 34.3524 4.11557Q33.7661 4.05782 33.1776 4.02891Q32.5892 4 32 4Q31.4108 4 30.8224 4.02891Q30.2339 4.05782 29.6476 4.11557Q29.0613 4.17332 28.4785 4.25976Q27.8957 4.34621 27.3178 4.46115Q26.74 4.57609 26.1685 4.71925Q25.597 4.86241 25.0332 5.03343Q24.4694 5.20446 23.9146 5.40294Q23.3599 5.60143 22.8156 5.82689Q22.2713 6.05236 21.7387 6.30426Q21.2061 6.55616 20.6865 6.83389Q20.1669 7.11162 19.6615 7.41451Q19.1562 7.71741 18.6663 8.04473Q18.1764 8.37205 17.7032 8.72302Q17.23 9.07399 16.7746 9.44775Q16.3191 9.82151 15.8826 10.2172Q15.446 10.6128 15.0294 11.0294Q14.6128 11.446 14.2172 11.8826Q13.8215 12.3191 13.4478 12.7746Q13.074 13.23 12.723 13.7032Q12.372 14.1764 12.0447 14.6663Q11.7174 15.1562 11.4145 15.6615Q11.1116 16.1669 10.8339 16.6865Q10.5562 17.2061 10.3043 17.7387Q10.0524 18.2713 9.82689 18.8156Q9.60143 19.3599 9.40294 19.9146Q9.20446 20.4694 9.03343 21.0332Q8.86241 21.597 8.71925 22.1685Q8.57609 22.74 8.46115 23.3178Q8.34621 23.8957 8.25976 24.4785Q8.17332 25.0613 8.11557 25.6476Q8.05782 26.2339 8.02891 26.8224Z" fill="white"/></clipPath><radialGradient id="linear_fill_ZOZwMO6lx8_0" cx="0" cy="0" r="1" gradientTransform="translate(24.750001484993867 22.99999946076428) rotate(-218.92754167180158) scale(25.06616240391323, 25.06616240391323)" gradientUnits="userSpaceOnUse"><stop offset="0.8255593180656433" stop-color="#041329"  /><stop offset="1" stop-color="#041632"  /></radialGradient></defs></svg>